<svg xmlns="http://www.w3.org/2000/svg" style="border: 1px solid black" id="mainsvg1" width="300" height="200" xmlns:xlink="http://www.w3.org/1999/xlink"><g transform="translate(10,10)"><rect x="-10" y="0" width="320" height="200" stroke="#808080" fill="#000000" fill-opacity="0"></rect><path d="M146,200 L154,200" fill="none" stroke="#FFFFFF" stroke-width="1px"></path><path d="M146,200 L150,204 L154,200" fill="#FFFFFF" stroke="#808080" stroke-width="1px" style="stroke-linecap: round;"></path><text x="0" y="0" dy="20.512820512820515" text-anchor="start" fill="balck" font-size="12.5px">mtcars<title>mtcars</title></text><rect width="50" height="30.76923076923077" fill="#43504F" opacity="1" stroke-width="1px" stroke="#767979" x="0" y="30.76923076923077"></rect><text x="0" y="30.76923076923077" dx="25" dy="20.512820512820515" text-anchor="middle" fill="#FFFFFF" font-size="12.5px"></text><rect width="50" height="30.76923076923077" fill="#43504F" opacity="1" stroke-width="1px" stroke="#767979" x="50" y="30.76923076923077"></rect><text x="50" y="30.76923076923077" dx="25" dy="20.512820512820515" text-anchor="middle" fill="#FFFFFF" font-size="12.5px">disp</text><rect width="50" height="30.76923076923077" fill="#43504F" opacity="1" stroke-width="1px" stroke="#767979" x="100" y="30.76923076923077"></rect><text x="100" y="30.76923076923077" dx="25" dy="20.512820512820515" text-anchor="middle" fill="#FFFFFF" font-size="12.5px"></text><rect width="50" height="30.76923076923077" fill="#5AABAC" stroke-width="1px" stroke="#767979" x="0" y="61.53846153846154"></rect><text x="0" y="61.53846153846154" dx="25" dy="20.512820512820515" text-anchor="middle" fill="#FFFFFF" font-size="12.5px"></text><rect width="50" height="30.76923076923077" fill="#F07A66" stroke-width="1px" stroke="#767979" x="50" y="61.53846153846154"></rect><text x="50" y="61.53846153846154" dx="25" dy="20.512820512820515" text-anchor="middle" fill="#FFFFFF" font-size="12.5px">160</text><rect width="50" height="30.76923076923077" fill="#F8BA4B" stroke-width="1px" stroke="#767979" x="100" y="61.53846153846154"></rect><text x="100" y="61.53846153846154" dx="25" dy="20.512820512820515" text-anchor="middle" fill="#FFFFFF" font-size="12.5px"></text><rect width="50" height="30.76923076923077" fill="#5AABAC" stroke-width="1px" stroke="#767979" x="0" y="92.3076923076923"></rect><text x="0" y="92.3076923076923" dx="25" dy="20.512820512820515" text-anchor="middle" fill="#FFFFFF" font-size="12.5px"></text><rect width="50" height="30.76923076923077" fill="#F07A66" stroke-width="1px" stroke="#767979" x="50" y="92.3076923076923"></rect><text x="50" y="92.3076923076923" dx="25" dy="20.512820512820515" text-anchor="middle" fill="#FFFFFF" font-size="12.5px">160</text><rect width="50" height="30.76923076923077" fill="#F8BA4B" stroke-width="1px" stroke="#767979" x="100" y="92.3076923076923"></rect><text x="100" y="92.3076923076923" dx="25" dy="20.512820512820515" text-anchor="middle" fill="#FFFFFF" font-size="12.5px"></text><rect width="50" height="30.76923076923077" fill="#5AABAC" stroke-width="1px" stroke="#767979" x="0" y="123.07692307692308"></rect><text x="0" y="123.07692307692308" dx="25" dy="20.512820512820515" text-anchor="middle" fill="#FFFFFF" font-size="12.5px"></text><rect width="50" height="30.76923076923077" fill="#F07A66" stroke-width="1px" stroke="#767979" x="50" y="123.07692307692308"></rect><text x="50" y="123.07692307692308" dx="25" dy="20.512820512820515" text-anchor="middle" fill="#FFFFFF" font-size="12.5px">108</text><rect width="50" height="30.76923076923077" fill="#F8BA4B" stroke-width="1px" stroke="#767979" x="100" y="123.07692307692308"></rect><text x="100" y="123.07692307692308" dx="25" dy="20.512820512820515" text-anchor="middle" fill="#FFFFFF" font-size="12.5px"></text><rect x="150" y="61.53846153846154" width="3.8461538461538463" height="92.3076923076923" fill="#FFFFFF" stroke-width="0.5px" stroke="#000000"></rect><rect x="150" y="61.53846153846154" width="3.8461538461538463" height="11.188811188811188" fill="#808080"></rect><rect x="0" y="153.84615384615384" width="150" height="3.8461538461538463" fill="#FFFFFF" stroke-width="0.5px" stroke="#000000"></rect><rect x="0" y="153.84615384615384" width="40.90909090909091" height="3.8461538461538463" fill="#808080"></rect><image href="https://pgdw.projects.zjvis.org/static/img/arrow.5def0e8d.png" x="155" y="78.92307692307692" width="40" height="30.76923076923077"></image><text x="200" y="0" dy="20.512820512820515" text-anchor="start" fill="balck" font-size="12.5px">mtcars…<title>mtcars_summarise</title></text><rect width="50" height="30.76923076923077" fill="#43504F" opacity="1" stroke-width="1px" stroke="#767979" x="200" y="30.76923076923077"></rect><text x="200" y="30.76923076923077" dx="25" dy="20.512820512820515" text-anchor="middle" fill="#FFFFFF" font-size="12.5px">mean</text><rect width="50" height="30.76923076923077" fill="#5AABAC" stroke-width="1px" stroke="#767979" x="200" y="61.53846153846154"></rect><text x="200" y="61.53846153846154" dx="25" dy="20.512820512820515" text-anchor="middle" fill="#FFFFFF" font-size="12.5px">230.…<title>230.721875</title></text><rect x="250" y="61.53846153846154" width="3.8461538461538463" height="30.76923076923077" fill="#FFFFFF" stroke-width="0.5px" stroke="#000000"></rect><rect x="250" y="61.53846153846154" width="3.8461538461538463" height="30.76923076923077" fill="#808080"></rect><rect x="200" y="92.3076923076923" width="50" height="3.8461538461538463" fill="#FFFFFF" stroke-width="0.5px" stroke="#000000"></rect><rect x="200" y="92.3076923076923" width="50" height="3.8461538461538463" fill="#808080"></rect></g></svg>